<svg width="100" height="130" viewBox="0 0 100 130" xmlns="http://www.w3.org/2000/svg" role="img" aria-label="eq">
  <defs>
    <mask id="m_eq" maskUnits="userSpaceOnUse" x="0" y="0" width="100" height="130">
  <rect x="2" y="2" width="96" height="126" rx="10" fill="#fff"></rect>
  <rect x="15" y="12" width="8" height="60" rx="4" fill="#000"></rect><rect x="30" y="12" width="8" height="60" rx="4" fill="#000"></rect><rect x="45" y="12" width="8" height="60" rx="4" fill="#000"></rect><rect x="60" y="12" width="8" height="60" rx="4" fill="#000"></rect><rect x="75" y="12" width="8" height="60" rx="4" fill="#000"></rect>
  <rect x="12" y="18" width="14" height="8" rx="3" fill="#fff"></rect><rect x="27" y="38" width="14" height="8" rx="3" fill="#fff"></rect><rect x="42" y="55" width="14" height="8" rx="3" fill="#fff"></rect><rect x="57" y="38" width="14" height="8" rx="3" fill="#fff"></rect><rect x="72" y="18" width="14" height="8" rx="3" fill="#fff"></rect>
  <circle cx="50" cy="88" r="3" fill="#000"></circle>
  <circle cx="50" cy="110" r="12" fill="#fff"></circle><circle cx="50" cy="110" r="7" fill="#000"></circle><circle cx="50" cy="110" r="3" fill="#fff"></circle>
    </mask>
  </defs>
  <rect x="0" y="0" width="100" height="130" fill="currentColor" mask="url(#m_eq)"></rect>
</svg>