<svg viewBox="0 0 512 512" width="512" height="512" xmlns="http://www.w3.org/2000/svg" role="img" aria-label="SONICMASTER icon">
<rect width="512" height="512" rx="112" fill="#141414"></rect>
<g transform="translate(-160.39,102.28) scale(1.4924)"><path d="M258 0.08C271.67 0.08 285.33 0.08 299 0.08C299.02 0.39 299.04 0.69 299.06 1C302.36 1.34 305.67 1.68 308.98 2.02C309.07 2.17 309.16 2.31 309.25 2.45C310.92 2.47 312.58 2.49 314.25 2.51C314.19 3.67 314.12 4.84 314.06 6C313.87 10.27 311.68 14.63 310.11 18.36C309.4 20.05 309.6 21.95 308.89 23.64C306.33 29.71 304.67 36.29 302.11 42.36C301.02 44.94 300.14 53.42 297 53.75C295.56 51.9 293.74 50 291.64 49.11C289.95 48.39 286.75 48.73 285.94 47C280.98 47 276.02 47 271.06 47C270.25 48.74 267.05 48.38 265.36 49.11C264.02 49.69 258.86 53.89 258.11 55.36C256.46 58.59 255.48 62.11 254.11 65.36C253.38 67.08 254.94 69.15 253 70.06C252.85 70.12 252.7 70.19 252.55 70.25C252.36 72.83 252.17 75.4 251.98 77.98C251.65 84.98 251.31 91.98 250.98 98.98C250.83 99.07 250.69 99.16 250.55 99.25C250.55 101.75 250.55 104.25 250.55 106.75C250.69 106.84 250.83 106.93 250.98 107.02C251.31 114.02 251.65 121.02 251.98 128.02C252.17 130.6 252.36 133.17 252.55 135.75C252.7 135.81 252.85 135.88 253 135.94C254.94 136.85 253.38 138.92 254.11 140.64C255.48 143.89 256.46 147.41 258.11 150.64C258.86 152.11 264.02 156.31 265.36 156.89C267.05 157.62 270.25 157.26 271.06 159C276.02 159 280.98 159 285.94 159C286.75 157.27 289.95 157.61 291.64 156.89C293.94 155.92 298.64 152.09 299.89 149.64C301.15 147.18 302.25 143.84 302.98 141.23C303.46 139.55 302.18 137.79 304 136.94C304.15 136.88 304.3 136.81 304.45 136.75C304.64 134.84 304.83 132.93 305.02 131.02C305.35 127.02 305.69 123.02 306.02 119.02C306.02 108.34 306.02 97.66 306.02 86.98C305.69 82.98 305.35 78.98 305.02 74.98C304.83 73.07 304.64 71.16 304.45 69.25C304.3 69.19 304.15 69.12 304 69.06C303.25 68.71 302.09 63.45 302 62.25C302.77 59.66 313.81 53.34 316.64 51.89C318.38 51 319.62 49 321.36 48.11C330.25 43.56 337.75 36.44 346.64 31.89C350.15 30.09 353.19 26.21 357.25 25C363.37 31.38 370.66 50.06 371.06 59C371.22 60.92 371.38 62.83 371.55 64.75C371.69 64.84 371.83 64.93 371.98 65.02C372.17 67.26 372.36 69.51 372.55 71.75C372.69 71.84 372.83 71.93 372.98 72.02C373.31 75.69 373.65 79.35 373.98 83.02C373.98 96.34 373.98 109.66 373.98 122.98C373.65 126.65 373.31 130.31 372.98 133.98C372.83 134.07 372.69 134.16 372.55 134.25C372.36 136.49 372.17 138.74 371.98 140.98C371.83 141.07 371.69 141.16 371.55 141.25C371.38 143.17 371.22 145.08 371.06 147C370.87 151.18 369.62 154.77 368.11 158.36C367.68 159.37 368.32 160.63 367.89 161.64C366.07 165.95 364.06 170.41 361.89 174.64C361.54 175.32 360.46 175.68 360.11 176.36C352.27 191.68 331.26 202.33 315 203.06C313.08 203.22 311.17 203.38 309.25 203.55C309.16 203.69 309.07 203.83 308.98 203.98C305.67 204.32 302.36 204.66 299.06 205C299.04 205.31 299.02 205.61 299 205.92C285.33 205.92 271.67 205.92 258 205.92C257.98 205.61 257.96 205.31 257.94 205C257.88 204.85 257.81 204.7 257.75 204.55C254.84 204.36 251.93 204.17 249.02 203.98C248.93 203.83 248.84 203.69 248.75 203.55C246.5 203.38 244.25 203.22 242 203.06C237.59 202.86 233.45 201.72 229.64 200.11C227.95 199.4 226.05 199.6 224.36 198.89C221.05 197.5 217.6 195.55 214.36 193.89C211.84 192.6 209.9 190.19 207.36 188.89C205.33 187.85 199.92 180.37 198.89 178.36C197.66 175.96 195.34 174.04 194.11 171.64C193.39 170.23 193.5 168.79 192.89 167.36C192.21 165.75 190.79 164.25 190.11 162.64C189.28 160.67 189.72 158.32 188.89 156.36C187.12 152.17 186.16 147.88 185.94 143C185.78 141.08 185.62 139.17 185.45 137.25C185.31 137.16 185.17 137.07 185.02 136.98C184.69 133.65 184.35 130.31 184.02 126.98C184.02 110.99 184.02 95.01 184.02 79.02C184.35 75.69 184.69 72.35 185.02 69.02C185.17 68.93 185.31 68.84 185.45 68.75C185.62 66.83 185.78 64.92 185.94 63C186.35 53.94 190.11 42.18 194.11 34.36C195.34 31.96 197.66 30.04 198.89 27.64C199.92 25.63 205.33 18.15 207.36 17.11C209.9 15.81 211.84 13.4 214.36 12.11C217.6 10.45 221.05 8.5 224.36 7.11C226.05 6.4 227.95 6.6 229.64 5.89C233.45 4.28 237.59 3.14 242 2.94C244.25 2.78 246.5 2.62 248.75 2.45C248.84 2.31 248.93 2.17 249.02 2.02C251.93 1.83 254.84 1.64 257.75 1.45C257.81 1.3 257.88 1.15 257.94 1C257.96 0.69 257.98 0.39 258 0.08Z" fill="#ffffff"></path></g>
</svg>