<svg width="120" height="130" viewBox="0 0 120 130" xmlns="http://www.w3.org/2000/svg" role="img" aria-label="ir">
  <defs>
    <mask id="m_ir" maskUnits="userSpaceOnUse" x="0" y="0" width="120" height="130">
  <rect x="2" y="10" width="116" height="110" rx="8" fill="#fff"></rect>
  <path d="M40 10 V4 H80 V10" fill="none" stroke="#fff" stroke-width="3" stroke-linecap="round"></path>
  <rect x="15" y="120" width="10" height="4" rx="2" fill="#fff"></rect>
  <rect x="95" y="120" width="10" height="4" rx="2" fill="#fff"></rect>
  <rect x="10" y="18" width="100" height="94" rx="4" fill="none" stroke="#000" stroke-width="3"></rect>
  <circle cx="22" cy="30" r="2.5" fill="#000"></circle><circle cx="22" cy="42" r="2.5" fill="#000"></circle><circle cx="22" cy="54" r="2.5" fill="#000"></circle><circle cx="22" cy="66" r="2.5" fill="#000"></circle><circle cx="22" cy="78" r="2.5" fill="#000"></circle><circle cx="22" cy="90" r="2.5" fill="#000"></circle><circle cx="22" cy="102" r="2.5" fill="#000"></circle><circle cx="34" cy="30" r="2.5" fill="#000"></circle><circle cx="34" cy="42" r="2.5" fill="#000"></circle><circle cx="34" cy="54" r="2.5" fill="#000"></circle><circle cx="34" cy="66" r="2.5" fill="#000"></circle><circle cx="34" cy="78" r="2.5" fill="#000"></circle><circle cx="34" cy="90" r="2.5" fill="#000"></circle><circle cx="34" cy="102" r="2.5" fill="#000"></circle><circle cx="46" cy="30" r="2.5" fill="#000"></circle><circle cx="46" cy="42" r="2.5" fill="#000"></circle><circle cx="46" cy="54" r="2.5" fill="#000"></circle><circle cx="46" cy="66" r="2.5" fill="#000"></circle><circle cx="46" cy="78" r="2.5" fill="#000"></circle><circle cx="46" cy="90" r="2.5" fill="#000"></circle><circle cx="46" cy="102" r="2.5" fill="#000"></circle><circle cx="58" cy="30" r="2.5" fill="#000"></circle><circle cx="58" cy="42" r="2.5" fill="#000"></circle><circle cx="58" cy="54" r="2.5" fill="#000"></circle><circle cx="58" cy="66" r="2.5" fill="#000"></circle><circle cx="58" cy="78" r="2.5" fill="#000"></circle><circle cx="58" cy="90" r="2.5" fill="#000"></circle><circle cx="58" cy="102" r="2.5" fill="#000"></circle><circle cx="70" cy="30" r="2.5" fill="#000"></circle><circle cx="70" cy="42" r="2.5" fill="#000"></circle><circle cx="70" cy="54" r="2.5" fill="#000"></circle><circle cx="70" cy="66" r="2.5" fill="#000"></circle><circle cx="70" cy="78" r="2.5" fill="#000"></circle><circle cx="70" cy="90" r="2.5" fill="#000"></circle><circle cx="70" cy="102" r="2.5" fill="#000"></circle><circle cx="82" cy="30" r="2.5" fill="#000"></circle><circle cx="82" cy="42" r="2.5" fill="#000"></circle><circle cx="82" cy="54" r="2.5" fill="#000"></circle><circle cx="82" cy="66" r="2.5" fill="#000"></circle><circle cx="82" cy="78" r="2.5" fill="#000"></circle><circle cx="82" cy="90" r="2.5" fill="#000"></circle><circle cx="82" cy="102" r="2.5" fill="#000"></circle><circle cx="94" cy="30" r="2.5" fill="#000"></circle><circle cx="94" cy="42" r="2.5" fill="#000"></circle><circle cx="94" cy="54" r="2.5" fill="#000"></circle><circle cx="94" cy="66" r="2.5" fill="#000"></circle><circle cx="94" cy="78" r="2.5" fill="#000"></circle><circle cx="94" cy="90" r="2.5" fill="#000"></circle><circle cx="94" cy="102" r="2.5" fill="#000"></circle>
    </mask>
  </defs>
  <rect x="0" y="0" width="120" height="130" fill="currentColor" mask="url(#m_ir)"></rect>
</svg>