<svg viewBox="-14 -14 2076.64 233.92" width="2076.64" height="233.92" fill="currentColor" xmlns="http://www.w3.org/2000/svg" role="img" aria-label="SONICMASTER">
<g transform="translate(-0.08,0)"><path d="M63 0.08C78.33 0.08 93.67 0.08 109 0.08C109.02 0.39 109.04 0.69 109.06 1C113.03 1.34 117 1.68 120.98 2.02C121.07 2.17 121.16 2.31 121.25 2.45C123.83 2.64 126.4 2.83 128.98 3.02C129.07 3.17 129.16 3.31 129.25 3.45C131.16 3.64 133.07 3.83 134.98 4.02C135.07 4.17 135.16 4.31 135.25 4.45C137.17 4.62 139.08 4.78 141 4.94C144.72 5.11 158.18 8 160.75 10C160.5 10.35 160.25 10.7 160 11.06C159.66 14.7 159.32 18.34 158.98 21.98C158.65 25.31 158.31 28.65 157.98 31.98C157.65 35.31 157.31 38.65 156.98 41.98C156.82 44.74 156.65 47.49 156.49 50.25C155.67 50.16 154.84 50.07 154.02 49.98C127.03 49.99 100.04 49.99 73.06 50C72.24 51.74 70.91 50.46 69.36 51.11C67.02 52.1 65.71 53.86 65 56.25C65.5 62.58 72.27 65.74 77.36 67.89C78.08 68.19 78.92 67.81 79.64 68.11C80.55 68.49 81.45 69.51 82.36 69.89C83.08 70.19 83.92 69.81 84.64 70.11C87.24 71.21 89.76 72.79 92.36 73.89C93.08 74.19 93.92 73.81 94.64 74.11C100.55 76.6 106.45 79.4 112.36 81.89C114.72 82.89 117.28 83.11 119.64 84.11C121.94 85.08 124.06 86.92 126.36 87.89C128.46 88.78 130.58 89.06 132.64 90.11C133.32 90.46 133.68 91.54 134.36 91.89C136.47 92.97 138.53 94.03 140.64 95.11C141.32 95.46 141.68 96.54 142.36 96.89C145.68 98.59 154.03 104.72 155.89 108.36C157.64 111.79 160.4 114.83 161.89 118.36C162.19 119.08 161.81 119.92 162.11 120.64C163.71 124.42 164.86 127.53 165.06 132C165.36 135.34 165.67 138.68 165.98 142.02C165.98 144.01 165.98 145.99 165.98 147.98C165.67 152.32 165.36 156.66 165.06 161C164.57 171.87 157.8 187.76 147.36 193.11C146.68 193.46 146.32 194.54 145.64 194.89C143.06 196.21 140.26 197.78 137.64 198.89C135.95 199.6 134.05 199.4 132.36 200.11C128.37 201.79 124.67 202.85 120 203.06C117.75 203.22 115.5 203.38 113.25 203.55C113.16 203.69 113.07 203.83 112.98 203.98C109.67 204.32 106.36 204.66 103.06 205C103.04 205.31 103.02 205.61 103 205.92C88.33 205.92 73.67 205.92 59 205.92C58.98 205.61 58.96 205.31 58.94 205C55.3 204.66 51.66 204.32 48.02 203.98C47.93 203.83 47.84 203.69 47.75 203.55C44.84 203.36 41.93 203.17 39.02 202.98C38.93 202.83 38.84 202.69 38.75 202.55C36.51 202.36 34.26 202.17 32.02 201.98C31.93 201.83 31.84 201.69 31.75 201.55C29.84 201.36 27.93 201.17 26.02 200.98C25.93 200.83 25.84 200.69 25.75 200.55C23.83 200.38 21.92 200.22 20 200.06C15.58 199.37 11.17 198.69 6.75 198C6.48 197.67 6.21 197.33 5.94 197C4.8 196.75 3.65 196.5 2.51 196.25C2.68 194.17 2.85 192.1 3.02 190.02C3.35 186.35 3.69 182.69 4.02 179.02C4.35 175.02 4.69 171.02 5.02 167.02C5.35 163.35 5.69 159.69 6.02 156.02C6.26 154.85 6.51 153.68 6.75 152.51C13.49 152.68 20.24 152.85 26.98 153.02C49.63 153.01 72.29 153.01 94.94 153C95.61 151.58 100.17 151.13 100.98 148.23C101.54 146.26 99.45 141.04 97.64 140.11C96.58 139.57 95.42 139.42 94.36 138.89C92.78 138.1 91.26 136.79 89.64 136.11C87.95 135.4 86.05 135.6 84.36 134.89C82.75 134.21 81.25 132.79 79.64 132.11C78.92 131.81 78.08 132.19 77.36 131.89C75.75 131.21 74.25 129.79 72.64 129.11C71.21 128.51 69.77 128.6 68.36 127.89C48.59 118.01 19.06 111.19 7.89 89.36C7.54 88.68 6.46 88.32 6.11 87.64C4.11 83.73 2.15 77.54 1.94 73C1.78 70.75 1.62 68.5 1.45 66.25C1.3 66.19 1.15 66.12 1 66.06C0.69 66.04 0.39 66.02 0.08 66C0.08 60.67 0.08 55.33 0.08 50C0.39 49.98 0.69 49.96 1 49.94C1.15 49.88 1.3 49.81 1.45 49.75C1.62 47.17 1.78 44.58 1.94 42C2.18 36.63 3.97 33.2 5.89 28.64C6.19 27.92 5.8 27.07 6.11 26.36C6.4 25.68 7.55 25.31 7.89 24.64C8.43 23.58 8.57 22.42 9.11 21.36C10.34 18.96 16.41 14.03 18.64 12.89C19.32 12.54 19.68 11.46 20.36 11.11C28.58 6.9 37.39 3.37 47 2.94C48.92 2.78 50.83 2.62 52.75 2.45C52.84 2.31 52.93 2.17 53.02 2.02C56.33 1.68 59.64 1.34 62.94 1C62.96 0.69 62.98 0.39 63 0.08Z"></path></g>
<g transform="translate(-0.12,0)"><path d="M258 0.08C271.67 0.08 285.33 0.08 299 0.08C299.02 0.39 299.04 0.69 299.06 1C302.36 1.34 305.67 1.68 308.98 2.02C309.07 2.17 309.16 2.31 309.25 2.45C310.92 2.47 312.58 2.49 314.25 2.51C314.19 3.67 314.12 4.84 314.06 6C313.87 10.27 311.68 14.63 310.11 18.36C309.4 20.05 309.6 21.95 308.89 23.64C306.33 29.71 304.67 36.29 302.11 42.36C301.02 44.94 300.14 53.42 297 53.75C295.56 51.9 293.74 50 291.64 49.11C289.95 48.39 286.75 48.73 285.94 47C280.98 47 276.02 47 271.06 47C270.25 48.74 267.05 48.38 265.36 49.11C264.02 49.69 258.86 53.89 258.11 55.36C256.46 58.59 255.48 62.11 254.11 65.36C253.38 67.08 254.94 69.15 253 70.06C252.85 70.12 252.7 70.19 252.55 70.25C252.36 72.83 252.17 75.4 251.98 77.98C251.65 84.98 251.31 91.98 250.98 98.98C250.83 99.07 250.69 99.16 250.55 99.25C250.55 101.75 250.55 104.25 250.55 106.75C250.69 106.84 250.83 106.93 250.98 107.02C251.31 114.02 251.65 121.02 251.98 128.02C252.17 130.6 252.36 133.17 252.55 135.75C252.7 135.81 252.85 135.88 253 135.94C254.94 136.85 253.38 138.92 254.11 140.64C255.48 143.89 256.46 147.41 258.11 150.64C258.86 152.11 264.02 156.31 265.36 156.89C267.05 157.62 270.25 157.26 271.06 159C276.02 159 280.98 159 285.94 159C286.75 157.27 289.95 157.61 291.64 156.89C293.94 155.92 298.64 152.09 299.89 149.64C301.15 147.18 302.25 143.84 302.98 141.23C303.46 139.55 302.18 137.79 304 136.94C304.15 136.88 304.3 136.81 304.45 136.75C304.64 134.84 304.83 132.93 305.02 131.02C305.35 127.02 305.69 123.02 306.02 119.02C306.02 108.34 306.02 97.66 306.02 86.98C305.69 82.98 305.35 78.98 305.02 74.98C304.83 73.07 304.64 71.16 304.45 69.25C304.3 69.19 304.15 69.12 304 69.06C303.25 68.71 302.09 63.45 302 62.25C302.77 59.66 313.81 53.34 316.64 51.89C318.38 51 319.62 49 321.36 48.11C330.25 43.56 337.75 36.44 346.64 31.89C350.15 30.09 353.19 26.21 357.25 25C363.37 31.38 370.66 50.06 371.06 59C371.22 60.92 371.38 62.83 371.55 64.75C371.69 64.84 371.83 64.93 371.98 65.02C372.17 67.26 372.36 69.51 372.55 71.75C372.69 71.84 372.83 71.93 372.98 72.02C373.31 75.69 373.65 79.35 373.98 83.02C373.98 96.34 373.98 109.66 373.98 122.98C373.65 126.65 373.31 130.31 372.98 133.98C372.83 134.07 372.69 134.16 372.55 134.25C372.36 136.49 372.17 138.74 371.98 140.98C371.83 141.07 371.69 141.16 371.55 141.25C371.38 143.17 371.22 145.08 371.06 147C370.87 151.18 369.62 154.77 368.11 158.36C367.68 159.37 368.32 160.63 367.89 161.64C366.07 165.95 364.06 170.41 361.89 174.64C361.54 175.32 360.46 175.68 360.11 176.36C352.27 191.68 331.26 202.33 315 203.06C313.08 203.22 311.17 203.38 309.25 203.55C309.16 203.69 309.07 203.83 308.98 203.98C305.67 204.32 302.36 204.66 299.06 205C299.04 205.31 299.02 205.61 299 205.92C285.33 205.92 271.67 205.92 258 205.92C257.98 205.61 257.96 205.31 257.94 205C257.88 204.85 257.81 204.7 257.75 204.55C254.84 204.36 251.93 204.17 249.02 203.98C248.93 203.83 248.84 203.69 248.75 203.55C246.5 203.38 244.25 203.22 242 203.06C237.59 202.86 233.45 201.72 229.64 200.11C227.95 199.4 226.05 199.6 224.36 198.89C221.05 197.5 217.6 195.55 214.36 193.89C211.84 192.6 209.9 190.19 207.36 188.89C205.33 187.85 199.92 180.37 198.89 178.36C197.66 175.96 195.34 174.04 194.11 171.64C193.39 170.23 193.5 168.79 192.89 167.36C192.21 165.75 190.79 164.25 190.11 162.64C189.28 160.67 189.72 158.32 188.89 156.36C187.12 152.17 186.16 147.88 185.94 143C185.78 141.08 185.62 139.17 185.45 137.25C185.31 137.16 185.17 137.07 185.02 136.98C184.69 133.65 184.35 130.31 184.02 126.98C184.02 110.99 184.02 95.01 184.02 79.02C184.35 75.69 184.69 72.35 185.02 69.02C185.17 68.93 185.31 68.84 185.45 68.75C185.62 66.83 185.78 64.92 185.94 63C186.35 53.94 190.11 42.18 194.11 34.36C195.34 31.96 197.66 30.04 198.89 27.64C199.92 25.63 205.33 18.15 207.36 17.11C209.9 15.81 211.84 13.4 214.36 12.11C217.6 10.45 221.05 8.5 224.36 7.11C226.05 6.4 227.95 6.6 229.64 5.89C233.45 4.28 237.59 3.14 242 2.94C244.25 2.78 246.5 2.62 248.75 2.45C248.84 2.31 248.93 2.17 249.02 2.02C251.93 1.83 254.84 1.64 257.75 1.45C257.81 1.3 257.88 1.15 257.94 1C257.96 0.69 257.98 0.39 258 0.08Z"></path></g>
<g transform="translate(-7.64,0)"><path d="M414 0.08C427.33 0.08 440.67 0.08 454 0.08C454.4 0.97 459.29 2.42 460.64 3.11C462.28 3.95 469.04 12.69 469.89 14.36C471.51 17.53 473.49 20.47 475.11 23.64C476 25.38 478 26.62 478.89 28.36C487.31 44.82 499.69 59.18 508.11 75.64C508.46 76.32 509.54 76.68 509.89 77.36C511.52 80.53 513.48 83.46 515.11 86.64C515.46 87.32 516.54 87.68 516.89 88.36C518.55 91.6 520.5 95.05 521.89 98.36C522.19 99.08 521.81 99.92 522.11 100.64C523.79 104.61 526.22 108.4 527.89 112.36C528.79 114.49 529.54 120.5 532 120.75C531.98 119.83 531.96 118.92 531.94 118C531.64 114.66 531.33 111.32 531.02 107.98C530.69 103.98 530.35 99.98 530.02 95.98C529.85 64.01 529.68 32.05 529.5 0.08C549.17 0.08 568.83 0.08 588.5 0.08C588.35 63.72 588.2 127.36 588.06 191C587.82 196.25 584.32 201.5 579.64 203.89C578.16 204.65 574.6 204.58 574 205.92C560.67 205.92 547.33 205.92 534 205.92C533.87 205.63 527.48 202.46 526.36 201.89C525.68 201.54 519.58 193.57 519.11 192.64C511.23 177.25 499.77 163.75 491.89 148.36C491.54 147.68 490.46 147.32 490.11 146.64C488.48 143.47 486.52 140.54 484.89 137.36C484.54 136.68 483.46 136.32 483.11 135.64C481.49 132.47 479.51 129.53 477.89 126.36C477 124.62 475 123.38 474.11 121.64C470.2 114 466.41 106.46 463.11 98.64C461.27 94.29 460.29 85.17 457.25 82C457.19 83.67 457.12 85.33 457.06 87C457.22 89.92 457.38 92.83 457.55 95.75C457.69 95.84 457.83 95.93 457.98 96.02C458.31 100.69 458.65 105.35 458.98 110.02C459.15 141.99 459.32 173.95 459.5 205.92C439.5 205.92 419.5 205.92 399.5 205.92C399.65 142.94 399.8 79.97 399.94 17C400.17 12 402.34 5.68 407.36 3.11C408.71 2.42 413.6 0.97 414 0.08Z"></path></g>
<g transform="translate(-20.64,0)"><path d="M619.5 0.08C640.83 0.08 662.17 0.08 683.5 0.08C683.5 68.69 683.5 137.31 683.5 205.92C662.17 205.92 640.83 205.92 619.5 205.92C619.5 137.31 619.5 68.69 619.5 0.08Z"></path></g>
<g transform="translate(-21.16,0)"><path d="M777 0.08C791 0.08 805 0.08 819 0.08C819.02 0.39 819.04 0.69 819.06 1C822.7 1.34 826.34 1.68 829.98 2.02C830.07 2.17 830.16 2.31 830.25 2.45C832.83 2.64 835.4 2.83 837.98 3.02C838.07 3.17 838.16 3.31 838.25 3.45C840.16 3.64 842.07 3.83 843.98 4.02C844.07 4.17 844.16 4.31 844.25 4.45C846.17 4.62 848.08 4.78 850 4.94C851.58 4.96 853.17 4.98 854.75 5C855.71 6.41 857.11 6 858.75 6C858.85 6.33 858.95 6.67 859.06 7C860.12 7.17 861.19 7.34 862.25 7.51C862.16 9.67 862.07 11.82 861.98 13.98C861.65 17.31 861.31 20.65 860.98 23.98C860.83 24.07 860.69 24.16 860.55 24.25C860.36 27.16 860.17 30.07 859.98 32.98C859.65 36.31 859.31 39.65 858.98 42.98C858.83 43.07 858.69 43.16 858.55 43.25C858.36 46.16 858.17 49.07 857.98 51.98C857.74 52.48 857.49 52.99 857.25 53.49C843.51 53.32 829.76 53.15 816.02 52.98C808.01 52.98 799.99 52.98 791.98 52.98C790.07 53.17 788.16 53.36 786.25 53.55C786.19 53.7 786.12 53.85 786.06 54C784.95 56.37 778.03 57.6 776.11 61.36C775.23 63.08 772.63 71.76 772 72.06C771.85 72.12 771.7 72.19 771.55 72.25C771.36 74.16 771.17 76.07 770.98 77.98C770.65 81.65 770.31 85.31 769.98 88.98C769.98 98.33 769.98 107.67 769.98 117.02C770.31 120.69 770.65 124.35 770.98 128.02C771.17 129.93 771.36 131.84 771.55 133.75C771.7 133.81 771.85 133.88 772 133.94C772.63 134.24 775.23 142.92 776.11 144.64C778.03 148.4 784.95 149.63 786.06 152C786.12 152.15 786.19 152.3 786.25 152.45C788.16 152.64 790.07 152.83 791.98 153.02C798.66 153.02 805.34 153.02 812.02 153.02C823.35 152.69 834.69 152.35 846.02 152.02C850.69 151.69 855.35 151.35 860.02 151.02C860.76 150.85 861.51 150.68 862.25 150.51C862.35 152.59 862.45 154.67 862.55 156.75C862.69 156.84 862.83 156.93 862.98 157.02C863.17 159.93 863.36 162.84 863.55 165.75C863.69 165.84 863.83 165.93 863.98 166.02C864.31 169.35 864.65 172.69 864.98 176.02C865.31 179.35 865.65 182.69 865.98 186.02C866.17 188.93 866.36 191.84 866.55 194.75C866.7 194.81 866.85 194.88 867 194.94C867.33 195.55 867.67 196.15 868 196.75C861.85 197.98 856.44 200.77 850 201.06C848.08 201.22 846.17 201.38 844.25 201.55C844.16 201.69 844.07 201.83 843.98 201.98C842.07 202.17 840.16 202.36 838.25 202.55C838.16 202.69 838.07 202.83 837.98 202.98C835.4 203.17 832.83 203.36 830.25 203.55C830.16 203.69 830.07 203.83 829.98 203.98C826.34 204.32 822.7 204.66 819.06 205C819.04 205.31 819.02 205.61 819 205.92C805 205.92 791 205.92 777 205.92C776.98 205.61 776.96 205.31 776.94 205C776.88 204.85 776.81 204.7 776.75 204.55C774.17 204.36 771.6 204.17 769.02 203.98C768.93 203.83 768.84 203.69 768.75 203.55C766.83 203.38 764.92 203.22 763 203.06C752.32 202.58 742.51 197.57 733.36 192.89C730.45 191.4 728.72 188 725.91 186.34C724.27 185.39 719.14 180.66 718.11 178.64C715.55 173.65 712.28 168.79 710.11 163.64C709.4 161.95 709.6 160.05 708.89 158.36C706.82 153.46 705.2 148.7 704.94 143C704.78 141.08 704.62 139.17 704.45 137.25C704.31 137.16 704.17 137.07 704.02 136.98C703.83 134.4 703.64 131.83 703.45 129.25C703.31 129.16 703.17 129.07 703.02 128.98C702.69 124.31 702.35 119.65 702.02 114.98C702.02 106.99 702.02 99.01 702.02 91.02C702.35 86.35 702.69 81.69 703.02 77.02C703.17 76.93 703.31 76.84 703.45 76.75C703.64 74.17 703.83 71.6 704.02 69.02C704.17 68.93 704.31 68.84 704.45 68.75C704.62 66.83 704.78 64.92 704.94 63C705.2 57.3 706.82 52.54 708.89 47.64C709.6 45.95 709.4 44.05 710.11 42.36C712.28 37.21 715.55 32.35 718.11 27.36C719.14 25.34 724.27 20.61 725.91 19.66C728.72 18 730.45 14.6 733.36 13.11C742.51 8.43 752.32 3.42 763 2.94C764.92 2.78 766.83 2.62 768.75 2.45C768.84 2.31 768.93 2.17 769.02 2.02C771.6 1.83 774.17 1.64 776.75 1.45C776.81 1.3 776.88 1.15 776.94 1C776.96 0.69 776.98 0.39 777 0.08Z"></path></g>
<g transform="translate(864.84,0)"><path d="M0 0.08 L64 0.08 L64 205.92 L0 205.92 Z M151 0.08 L215 0.08 L215 205.92 L151 205.92 Z M0 0.08 L64 0.08 L107.5 100 L151 0.08 L215 0.08 L107.5 165 Z"></path></g>
<g transform="translate(220.84,0)"><path d="M946 0.08C969.67 0.08 993.33 0.08 1017 0.08C1017.62 1.48 1018.37 0.57 1019.64 1.11C1022.5 2.32 1024.92 5.59 1028 6.25C1028.18 8.52 1029.97 8.57 1030.89 10.36C1032.7 13.89 1033.39 17.8 1034.89 21.36C1035.75 23.39 1036.25 29.61 1037.11 31.64C1042.85 45.23 1044.16 60.78 1049.89 74.36C1050.32 75.37 1049.68 76.63 1050.11 77.64C1052.5 83.31 1053.5 89.69 1055.89 95.36C1056.84 97.61 1056.16 100.39 1057.11 102.64C1059.5 108.31 1060.5 114.69 1062.89 120.36C1063.32 121.37 1062.68 122.63 1063.11 123.64C1068.85 137.23 1070.15 152.77 1075.89 166.36C1076.32 167.37 1075.68 168.63 1076.11 169.64C1077.57 173.09 1078.43 176.91 1079.89 180.36C1080.84 182.61 1080.16 185.39 1081.11 187.64C1083.58 193.49 1084.54 200.03 1087 205.92C1064.67 205.92 1042.33 205.92 1020 205.92C1016.31 191.28 1012.63 176.64 1008.94 162C990.65 162 972.35 162 954.06 162C953.89 164.84 952.19 169.8 951.11 172.36C950.61 173.54 951.32 175.03 950.98 176.23C950.53 177.87 949.76 179.82 949.11 181.36C948.68 182.37 949.32 183.63 948.89 184.64C948.24 186.18 947.47 188.13 947.02 189.77C946.68 190.97 947.39 192.46 946.89 193.64C945.37 197.23 944 201.76 944 205.92C921.67 205.92 899.33 205.92 877 205.92C877 201.56 881.14 188.78 882.89 184.64C883.75 182.61 884.25 176.39 885.11 174.36C889.91 162.99 891.09 150.01 895.89 138.64C896.32 137.63 895.68 136.37 896.11 135.36C898.5 129.69 899.5 123.31 901.89 117.64C902.84 115.39 902.16 112.61 903.11 110.36C905.5 104.69 906.5 98.31 908.89 92.64C909.32 91.63 908.68 90.37 909.11 89.36C914.85 75.77 916.15 60.23 921.89 46.64C922.32 45.63 921.68 44.37 922.11 43.36C923.57 39.91 924.43 36.09 925.89 32.64C926.32 31.63 925.68 30.37 926.11 29.36C927.95 25 928.32 19.6 930.11 15.36C931.49 12.08 935.73 4.97 939.36 3.11C940.71 2.42 945.6 0.97 946 0.08Z M978.06 49C978.04 50.25 978.02 51.5 978 52.75C977.67 52.85 977.33 52.95 977 53.06C976.85 53.12 976.7 53.19 976.55 53.25C976.36 55.49 976.17 57.74 975.98 59.98C975.83 60.07 975.69 60.16 975.55 60.25C975.38 62.5 975.22 64.75 975.06 67C974.82 72.38 973.37 76.92 972.02 81.77C971.71 82.85 972.29 84.15 971.98 85.23C971.16 88.17 970.29 91.57 969.11 94.36C968.12 96.7 968.66 99.81 967.98 102.23C966.77 106.57 964.84 111.2 965.06 116C976.35 116 987.65 116 998.94 116C997.02 109.95 995.73 103.35 994.02 97.23C993.71 96.15 994.29 94.85 993.98 93.77C993.53 92.13 992.76 90.18 992.11 88.64C991.61 87.46 992.32 85.97 991.98 84.77C990.27 78.64 988.24 72.73 987.94 66C987.78 64.08 987.62 62.17 987.45 60.25C987.31 60.16 987.17 60.07 987.02 59.98C986.83 57.4 986.64 54.83 986.45 52.25C986.3 52.19 986.15 52.12 986 52.06C985.67 51.95 985.33 51.85 985 51.75C984.98 50.83 984.96 49.92 984.94 49C984.88 48.85 984.81 48.7 984.75 48.55C982.58 48.55 980.42 48.55 978.25 48.55C978.19 48.7 978.12 48.85 978.06 49Z"></path></g>
<g transform="translate(1325.76,0)"><path d="M63 0.08C78.33 0.08 93.67 0.08 109 0.08C109.02 0.39 109.04 0.69 109.06 1C113.03 1.34 117 1.68 120.98 2.02C121.07 2.17 121.16 2.31 121.25 2.45C123.83 2.64 126.4 2.83 128.98 3.02C129.07 3.17 129.16 3.31 129.25 3.45C131.16 3.64 133.07 3.83 134.98 4.02C135.07 4.17 135.16 4.31 135.25 4.45C137.17 4.62 139.08 4.78 141 4.94C144.72 5.11 158.18 8 160.75 10C160.5 10.35 160.25 10.7 160 11.06C159.66 14.7 159.32 18.34 158.98 21.98C158.65 25.31 158.31 28.65 157.98 31.98C157.65 35.31 157.31 38.65 156.98 41.98C156.82 44.74 156.65 47.49 156.49 50.25C155.67 50.16 154.84 50.07 154.02 49.98C127.03 49.99 100.04 49.99 73.06 50C72.24 51.74 70.91 50.46 69.36 51.11C67.02 52.1 65.71 53.86 65 56.25C65.5 62.58 72.27 65.74 77.36 67.89C78.08 68.19 78.92 67.81 79.64 68.11C80.55 68.49 81.45 69.51 82.36 69.89C83.08 70.19 83.92 69.81 84.64 70.11C87.24 71.21 89.76 72.79 92.36 73.89C93.08 74.19 93.92 73.81 94.64 74.11C100.55 76.6 106.45 79.4 112.36 81.89C114.72 82.89 117.28 83.11 119.64 84.11C121.94 85.08 124.06 86.92 126.36 87.89C128.46 88.78 130.58 89.06 132.64 90.11C133.32 90.46 133.68 91.54 134.36 91.89C136.47 92.97 138.53 94.03 140.64 95.11C141.32 95.46 141.68 96.54 142.36 96.89C145.68 98.59 154.03 104.72 155.89 108.36C157.64 111.79 160.4 114.83 161.89 118.36C162.19 119.08 161.81 119.92 162.11 120.64C163.71 124.42 164.86 127.53 165.06 132C165.36 135.34 165.67 138.68 165.98 142.02C165.98 144.01 165.98 145.99 165.98 147.98C165.67 152.32 165.36 156.66 165.06 161C164.57 171.87 157.8 187.76 147.36 193.11C146.68 193.46 146.32 194.54 145.64 194.89C143.06 196.21 140.26 197.78 137.64 198.89C135.95 199.6 134.05 199.4 132.36 200.11C128.37 201.79 124.67 202.85 120 203.06C117.75 203.22 115.5 203.38 113.25 203.55C113.16 203.69 113.07 203.83 112.98 203.98C109.67 204.32 106.36 204.66 103.06 205C103.04 205.31 103.02 205.61 103 205.92C88.33 205.92 73.67 205.92 59 205.92C58.98 205.61 58.96 205.31 58.94 205C55.3 204.66 51.66 204.32 48.02 203.98C47.93 203.83 47.84 203.69 47.75 203.55C44.84 203.36 41.93 203.17 39.02 202.98C38.93 202.83 38.84 202.69 38.75 202.55C36.51 202.36 34.26 202.17 32.02 201.98C31.93 201.83 31.84 201.69 31.75 201.55C29.84 201.36 27.93 201.17 26.02 200.98C25.93 200.83 25.84 200.69 25.75 200.55C23.83 200.38 21.92 200.22 20 200.06C15.58 199.37 11.17 198.69 6.75 198C6.48 197.67 6.21 197.33 5.94 197C4.8 196.75 3.65 196.5 2.51 196.25C2.68 194.17 2.85 192.1 3.02 190.02C3.35 186.35 3.69 182.69 4.02 179.02C4.35 175.02 4.69 171.02 5.02 167.02C5.35 163.35 5.69 159.69 6.02 156.02C6.26 154.85 6.51 153.68 6.75 152.51C13.49 152.68 20.24 152.85 26.98 153.02C49.63 153.01 72.29 153.01 94.94 153C95.61 151.58 100.17 151.13 100.98 148.23C101.54 146.26 99.45 141.04 97.64 140.11C96.58 139.57 95.42 139.42 94.36 138.89C92.78 138.1 91.26 136.79 89.64 136.11C87.95 135.4 86.05 135.6 84.36 134.89C82.75 134.21 81.25 132.79 79.64 132.11C78.92 131.81 78.08 132.19 77.36 131.89C75.75 131.21 74.25 129.79 72.64 129.11C71.21 128.51 69.77 128.6 68.36 127.89C48.59 118.01 19.06 111.19 7.89 89.36C7.54 88.68 6.46 88.32 6.11 87.64C4.11 83.73 2.15 77.54 1.94 73C1.78 70.75 1.62 68.5 1.45 66.25C1.3 66.19 1.15 66.12 1 66.06C0.69 66.04 0.39 66.02 0.08 66C0.08 60.67 0.08 55.33 0.08 50C0.39 49.98 0.69 49.96 1 49.94C1.15 49.88 1.3 49.81 1.45 49.75C1.62 47.17 1.78 44.58 1.94 42C2.18 36.63 3.97 33.2 5.89 28.64C6.19 27.92 5.8 27.07 6.11 26.36C6.4 25.68 7.55 25.31 7.89 24.64C8.43 23.58 8.57 22.42 9.11 21.36C10.34 18.96 16.41 14.03 18.64 12.89C19.32 12.54 19.68 11.46 20.36 11.11C28.58 6.9 37.39 3.37 47 2.94C48.92 2.78 50.83 2.62 52.75 2.45C52.84 2.31 52.93 2.17 53.02 2.02C56.33 1.68 59.64 1.34 62.94 1C62.96 0.69 62.98 0.39 63 0.08Z"></path></g>
<g transform="translate(1509.74,0)"><path d="M0 0.08 L165 0.08 L165 52 L0 52 Z M50.5 0.08 L114.5 0.08 L114.5 205.92 L50.5 205.92 Z"></path></g>
<g transform="translate(397.72,0)"><path d="M1333 0.08C1371.29 0.1 1409.58 0.11 1447.88 0.13C1447.89 16.58 1447.9 33.04 1447.92 49.5C1420.96 49.66 1394.01 49.83 1367.06 50C1366.95 50.33 1366.85 50.67 1366.75 51C1365.17 51.75 1363.58 52.5 1362 53.25C1361.67 54.42 1361.33 55.58 1361 56.75C1360.67 56.85 1360.33 56.95 1360 57.06C1359.99 64.38 1359.99 71.7 1359.98 79.02C1385.4 79.18 1410.83 79.35 1436.25 79.51C1436.33 93.42 1436.41 107.34 1436.49 121.25C1410.99 121.49 1385.48 121.74 1359.98 121.98C1359.99 130.97 1359.99 139.96 1360 148.94C1360.33 149.05 1360.67 149.15 1361 149.25C1361.75 150.83 1362.5 152.42 1363.25 154C1364.42 154.33 1365.58 154.67 1366.75 155C1366.85 155.33 1366.95 155.67 1367.06 156C1394.01 156.17 1420.96 156.34 1447.92 156.5C1447.9 172.96 1447.89 189.42 1447.88 205.88C1409.58 205.89 1371.29 205.9 1333 205.92C1332.18 204.09 1329.98 205.58 1328.36 204.89C1325.1 203.52 1321.61 202.51 1318.36 200.89C1307.83 195.63 1296.48 183.12 1295.94 171C1295.78 168.42 1295.62 165.83 1295.45 163.25C1295.31 163.16 1295.17 163.07 1295.02 162.98C1295.02 122.99 1295.02 83.01 1295.02 43.02C1295.17 42.93 1295.31 42.84 1295.45 42.75C1295.62 40.17 1295.78 37.58 1295.94 35C1296.48 22.88 1307.83 10.37 1318.36 5.11C1321.61 3.49 1325.1 2.48 1328.36 1.11C1329.98 0.42 1332.18 1.91 1333 0.08Z"></path></g>
<g transform="translate(1863.64,0)"><path d="M0 0.08 L64 0.08 L64 205.92 L0 205.92 Z M64 0.08 L120 0.08 C152 0.08 174 26 174 65 C174 104 152 130 120 130 L64 130 Z M64 88 L100 88 C114 88 128 85 128 72 C128 60 118 48 100 48 L64 48 Z M78 116 L138 116 L185 205.92 L125 205.92 Z"></path></g>
</svg>